<svg xmlns="http://www.w3.org/2000/svg" width="124" height="67" viewBox="0 0 124 67">
    <g fill="#000" fill-rule="nonzero">
        <path d="M19.91.36c7.49 0 13.9 2.74 17.06 9.29 1.8 3.67 1.95 8.72 1.95 14.91 0 7-.15 12.09-1.8 16-3.31 7.56-10.37 9.94-18.43 9.94H0V.36h19.91zm-8.86 40.18h7.28c7.41 0 9.57-4.25 9.57-10.73v-9.14c0-6.91-2.81-10.3-9.79-10.3h-7.06v30.17zM79.91 38.31c-2.45 7.85-9.29 12.6-18.65 12.6-13 0-19.37-8.13-19.37-19.58V19.52C41.89 9.15 48.22 0 61.26 0c9.5 0 16.2 5.12 18.65 12.75l-10.52 3.74c-.79-3.45-3.67-6.12-8.21-6.12-5.54 0-8.13 4-8.13 8.14v13.61c0 4.32 2.59 8.42 8.13 8.42 4.47 0 7.42-2.59 8.21-6.26l10.52 4.03zM110.81 50.48V30.03H94.4v20.45H83.31V.36H94.4v20.09h16.41V.36h11v50.12zM.79 66.2v-7.3h.71v7.3zM5.14 62.09l-1.26-2v6.07h-.7v-7.3h.7l2.64 4 1.33 2.09v-6.09h.69v7.3h-.69zM12.18 65.03c.24-.84.51-1.67.76-2.49l1.14-3.63h.77l-2.41 7.3h-.6l-2.41-7.3h.76c.18.59 1 3 1.16 3.64l.79 2.49.04-.01zM15.77 66.2v-7.3h4.53v.65h-3.81v2.64h3.25v.63h-3.25v2.72h3.81v.66zM23.37 66.26a4.4 4.4 0 0 1-2.67-.89l.45-.58a3.51 3.51 0 0 0 2.25.8c1 0 1.81-.43 1.81-1.41s-.91-1.21-1.83-1.39c-1.11-.21-2.27-.45-2.27-1.94a2.08 2.08 0 0 1 2.35-2 3.6 3.6 0 0 1 2.22.64l-.4.59a3.47 3.47 0 0 0-1.83-.54c-1 0-1.64.44-1.64 1.33 0 .89.85 1.09 2 1.32 1.15.23 2.13.5 2.13 2-.03 1.27-1.03 2.07-2.57 2.07zM29.11 59.52v6.68h-.71v-6.68h-2.14v-.62h5v.62zM37.66 66.2v-5.7l-.82 1.84c-.22.45-1.08 2.28-1.29 2.73h-.64l-1.3-2.78c-.18-.38-.64-1.42-.82-1.8v5.69h-.7v-7.3h.71c.26.57 1.31 2.85 1.58 3.42.17.34.69 1.55.86 1.89l.85-1.88c.27-.57 1.31-2.86 1.58-3.43h.7v7.3l-.71.02zM39.91 66.2v-7.3h4.52v.65h-3.81v2.64h3.25v.63h-3.25v2.72h3.81v.66zM47.5 62.09l-1.26-2v6.07h-.7v-7.3h.7l2.64 4 1.32 2.09v-6.09h.71v7.3h-.69l-2.72-4.07zM54.59 59.52v6.68h-.68v-6.68h-2.14v-.62h5v.62zM65.49 66.2v-5.7l-.82 1.84c-.22.45-1.08 2.28-1.29 2.73h-.62l-1.3-2.78c-.18-.38-.64-1.42-.82-1.8v5.69h-.73v-7.3h.71c.26.57 1.31 2.85 1.59 3.42.16.34.69 1.55.85 1.89l.84-1.88c.28-.57 1.32-2.86 1.59-3.43h.69v7.3l-.69.02zM71.63 64.47h-3.27c-.21.57-.41 1.16-.61 1.73h-.74c.88-2.44 1.767-4.873 2.66-7.3h.65l2.67 7.3h-.75c-.21-.57-.41-1.17-.61-1.73zm-1.66-4.66c-.11.37-.36 1.11-.64 1.87s-.59 1.69-.77 2.18h2.86l-.82-2.36-.59-1.69h-.04zM75.91 62.09l-1.26-2v6.07h-.74v-7.3h.7l2.64 4 1.32 2.09v-6.09h.69v7.3h-.69zM84.84 64.47h-3.27c-.21.57-.41 1.16-.61 1.73h-.74c.88-2.44 1.767-4.873 2.66-7.3h.65l2.67 7.3h-.75c-.21-.57-.41-1.17-.61-1.73zm-1.66-4.66c-.11.37-.36 1.11-.64 1.87s-.59 1.69-.77 2.18h2.86l-.82-2.36-.59-1.69h-.04zM91.26 63.73v-.7h-1.6v-.64h2.31v1.3a2.56 2.56 0 1 1-5.12-.11V61.5a2.45 2.45 0 0 1 2.56-2.65 2.38 2.38 0 0 1 2.32 1.45s-.63.29-.65.31a1.74 1.74 0 0 0-1.66-1.09 1.83 1.83 0 0 0-1.86 2v2.07a1.86 1.86 0 1 0 3.7.13v.01zM93.33 66.2v-7.3h4.58v.65h-3.82v2.64h3.25v.63h-3.25v2.72h3.82v.66zM104.54 66.2v-5.7l-.82 1.84c-.22.45-1.08 2.28-1.29 2.73h-.62l-1.3-2.78c-.18-.38-.64-1.42-.82-1.8v5.69h-.78v-7.3h.71c.27.57 1.31 2.85 1.59 3.42.16.34.69 1.55.86 1.89l.85-1.88c.27-.57 1.31-2.86 1.58-3.43h.69v7.3l-.65.02zM106.76 66.2v-7.3h4.53v.65h-3.82v2.64h3.25v.63h-3.25v2.72h3.82v.66zM114.37 62.09l-1.25-2v6.07h-.7v-7.3h.7l2.65 4 1.32 2.09v-6.09h.69v7.3h-.69l-2.72-4.07zM121.47 59.52v6.68h-.71v-6.68h-2.14v-.62h5v.62z"/>
    </g>
</svg>
