<?xml version="1.0" encoding="utf-8"?>
<!-- Generator: Adobe Illustrator 23.0.3, SVG Export Plug-In . SVG Version: 6.00 Build 0)  -->
<svg version="1.2" baseProfile="tiny" id="Layer_1" xmlns="http://www.w3.org/2000/svg" xmlns:xlink="http://www.w3.org/1999/xlink"
	 x="0px" y="0px" viewBox="0 0 183.17 114.54" xml:space="preserve">
<g>
	<path fill-rule="evenodd" d="M38.07,31.38h2.03c0,0-0.38-0.81-0.44-2.93c2.12,0.06,2.93,0.43,2.93,0.43v-2.03
		c0,0-0.81,0.38-2.93,0.44c0.06-2.12,0.44-2.94,0.44-2.94h-2.03c0,0,0.37,0.81,0.43,2.94c-2.11-0.06-2.92-0.44-2.92-0.44v2.03
		c0,0,0.81-0.37,2.92-0.43C38.44,30.57,38.07,31.38,38.07,31.38z M64.53,41.46c0.01,6.21-0.01,10.92,0,17.13
		c0.01,7.35,0,22.37,0,25.46c-2.9-0.75-5.92-1.39-8.87-1.48c-5.66-0.17-12.05,1.43-16.49,5.27l-0.05,0.04
		c-4.14-3.63-9.97-5.22-15.28-5.29c-3.38-0.04-6.84,0.62-10.17,1.37l-0.02-18.42c-0.01-8.07,0.02-23.63,0.02-24.08
		c0-0.4-1.58-0.99-1.58-0.59c0.01,6.21,0.01,11.52,0.02,17.73c0.01,8.07-0.02,25.41-0.02,25.87c0,0.36,1.01,0.29,1.2,0.24
		c3.05-0.73,6.26-1.05,9.39-1.1c5.48-0.1,11.63,1.1,15.7,5.12c0.31,0.31,1.18,0.31,1.49,0c4.13-4.08,10.22-5.3,15.79-5.15
		c3.1,0.08,6.28,0.47,9.28,1.27c0.19,0.05,1.16,0.12,1.16-0.24l-0.02-18.91c-0.01-8.1,0.02-24.35,0.02-24.82
		C66.09,40.46,64.53,41.06,64.53,41.46L64.53,41.46z"/>
	<path fill-rule="evenodd" d="M20.26,35.97c2.89-2.2,4.98-4.63,8.63-4.63c1.87,0,3.11,1.91,3.11,3.07c0,0.81-0.22,2.45-2.02,2.45
		c-1.58,0-2.04-1.93-1.39-2.99c-2.33,0-2.45,3.61,1.42,3.61c1.66,0,3.37-0.97,3.37-2.97c0-1.35-0.96-3.71-4.5-3.71
		c-3.88,0-6.36,1.99-9.5,4.34c-3.24,2.43-6.16,3.09-10.15,2.69v0.59h0.01L9.24,80.31c0,0.4,1.54,0.99,1.54,0.59l0-42.29
		C14.22,38.87,17.5,38.07,20.26,35.97L20.26,35.97z M58.73,35.15c-3.14-2.35-5.62-4.34-9.5-4.34c-3.54,0-4.5,2.35-4.5,3.7
		c0,2.01,1.71,2.97,3.37,2.97c3.88,0,3.75-3.61,1.42-3.61c0.64,1.07,0.19,2.99-1.4,2.99c-1.81,0-2.02-1.63-2.02-2.45
		c0-1.16,1.25-3.07,3.11-3.07c3.65,0,5.74,2.43,8.64,4.63c2.76,2.1,6.04,2.89,9.48,2.64l0,42.29c0,0.4,1.54-0.19,1.54-0.6l0-41.88
		c0,0,0.01-0.59,0.01-0.59C64.89,38.24,61.97,37.58,58.73,35.15L58.73,35.15z"/>
	<path fill-rule="evenodd" d="M32.73,57.49c-0.95-1.8-4.31-8.69-5.74-11.62c-0.96-1.97-2.28-2.72-3.27-2.95
		c-0.69-0.16-4.07,0-4.88,0.01v0.05c1.03,0.44,3.08,2.72,3.88,4.44c0.53,1.16,3.74,7.75,4.86,9.86c1.11,2.1,3.54,2.86,4.57,2.99
		c0.47,0.06,0.97,0.06,1.46,0.05c-5,6.62-9.61,12.73-9.09,12c-1.64,2.02-3.2,2.83-4.73,3.29l0.01,0.29c4,0,6.84-2.95,7.34-3.59
		c0.87-1.13,5.3-7.07,9.88-13.15V73.5h3.95V54.66c0.85,0.68,1.83,1.75,2.55,3.03c0.38,0.69,2.31,5.23,3.59,6.99
		c1.07,1.48,2.72,1.71,4.28,1.71c-2.63,3.48-5.27,6.96-7.92,10.43c-0.71,0.92-1.42,1.81-2.21,2.64c-0.31,0.33-1.96,2.2-3.45,2.2
		c-1.63,0-2.67-1.28-2.67-2.54c0-1.37,0.74-2.8,2.35-3.16c1.53-0.34,2.79,0.47,3.03,0.72c0,0,1.55-0.44,1.55-0.45
		c-0.88-0.79-3.27-1.25-4.68-1.01c-2.18,0.37-4.09,1.83-4.09,4.04c0,1.49,1.49,3.08,4.49,3.08c3.6,0,5.98-2.75,6.77-3.61
		c0.38-0.42,9.28-12.26,14.38-18.96h-0.01l0.3-0.4c0.72-0.99,3.29-4.13,2.1-5.51l-2.97,0v0.17c1.51,0.87-0.75,4.18-1.93,5.74h-0.02
		c-1.26,1.67-2.71,3.58-4.2,5.55c-0.34-0.34-0.56-0.75-0.79-1.19c-1.27-2.45-2.51-4.91-3.72-7.39c-0.68-1.42-2.01-2.81-3.36-2.88
		c-1.11-0.06-2.24,0.05-3.35,0.06v0c2.09-2.74,3.99-5.22,5.34-6.91c0.72-0.91,1.42-1.81,2.21-2.64c0.31-0.33,1.96-2.21,3.45-2.21
		c1.63,0,2.67,1.28,2.67,2.54c0,1.37-0.74,2.81-2.35,3.16c-1.53,0.34-2.79-0.48-3.03-0.72c0,0-1.55,0.44-1.55,0.45
		c0.88,0.79,3.27,1.25,4.68,1.01c2.17-0.37,4.09-1.83,4.09-4.04c0-1.49-1.49-3.08-4.49-3.08c-3.6,0-5.98,2.75-6.77,3.61
		c-0.28,0.3-1.95,2.48-4.24,5.49V34.39h-3.95v21.42c-0.87,1.15-1.76,2.32-2.65,3.49C33.68,58.84,33.11,58.22,32.73,57.49
		L32.73,57.49z M88.19,37.47c-0.66,0.14-1.14,0.57-1.43,1.31l-2.19,5.07c-0.64,1.46-1.09,2.38-1.35,2.75
		c-0.56,0.79-1.29,1.18-2.19,1.18c-0.48,0-0.9-0.1-1.26-0.29c-0.49-0.24-0.73-0.6-0.73-1.08c0-0.57,0.27-0.85,0.8-0.85
		c0.22,0,0.43,0.08,0.62,0.23c0.18,0.18,0.26,0.38,0.26,0.59l-0.01,0.35c0,0.29,0.19,0.43,0.58,0.43c0.78,0,1.44-0.71,1.97-2.14
		l-3.6-6.38c-0.41-0.75-0.81-1.13-1.19-1.15v-0.63h3.27v0.63c-0.41,0.01-0.62,0.15-0.62,0.43c0,0.17,0.12,0.46,0.36,0.86l2.54,4.56
		h-0.03l2-4.61c0.12-0.23,0.18-0.44,0.18-0.63c0.01-0.18-0.07-0.35-0.21-0.47c-0.13-0.13-0.32-0.17-0.58-0.13v-0.64h2.85
		L88.19,37.47L88.19,37.47z M90.27,43.6c0.53,0,0.93-0.14,1.19-0.41c0.09-0.11,0.27-0.44,0.53-1.01c0.51-1.03,1.17-1.54,1.97-1.54
		c0.17,0,0.3,0.01,0.39,0.02v1.93h-0.56c-0.17-0.36-0.36-0.53-0.57-0.53c-0.2,0-0.42,0.21-0.67,0.64c-0.34,0.53-0.63,0.87-0.88,1.03
		v-0.01c0.59,0.1,1.12,0.41,1.49,0.89c0.27,0.3,0.58,0.86,0.93,1.68c0.16,0.34,0.26,0.53,0.29,0.59c0.12,0.11,0.38,0.23,0.78,0.35
		v0.41c-0.23,0.07-0.46,0.11-0.69,0.11c-0.69,0-1.21-0.19-1.57-0.56c-0.24-0.23-0.51-0.75-0.81-1.54c-0.21-0.5-0.39-0.83-0.54-1
		c-0.25-0.29-0.58-0.43-1-0.43h-0.43v1.59c0,0.77,0.26,1.17,0.77,1.22v0.59h-2.87v-0.59c0.51-0.05,0.77-0.46,0.77-1.22v-3.17
		c0-0.41-0.03-0.69-0.1-0.85c-0.1-0.21-0.32-0.35-0.67-0.41v-0.56h2.87v0.56c-0.34,0.06-0.56,0.2-0.67,0.41
		c-0.07,0.16-0.1,0.44-0.1,0.85v0.97L90.27,43.6L90.27,43.6z M96.46,49.99c0.51-0.05,0.77-0.44,0.77-1.18v-4.83
		c0-0.75,0.07-1.28,0.21-1.59c0.5-1.09,1.49-1.64,2.97-1.64c0.87,0,1.62,0.26,2.26,0.79c0.74,0.63,1.12,1.5,1.12,2.62
		c0,1.1-0.38,2-1.15,2.69c-0.58,0.5-1.28,0.75-2.11,0.75c-0.85,0-1.5-0.23-1.95-0.7h-0.01v1.9c0,0.8,0.29,1.19,0.88,1.19v0.57h-2.99
		L96.46,49.99L96.46,49.99z M98.57,45.08c0,1.2,0.61,1.8,1.83,1.8c1.24,0,1.86-0.91,1.86-2.73c0-1.81-0.61-2.72-1.84-2.72
		c-0.61,0-1.1,0.23-1.45,0.68c-0.26,0.34-0.39,0.69-0.39,1.07C98.57,43.18,98.57,45.08,98.57,45.08z M109.46,46.72
		c-0.6,0.61-1.29,0.92-2.07,0.92c-0.65,0-1.16-0.18-1.53-0.53c-0.36-0.32-0.54-0.75-0.54-1.29c0-1.45,1.32-2.26,3.95-2.42
		c0-0.66-0.07-1.14-0.23-1.43c-0.17-0.38-0.51-0.57-1.02-0.57c-0.42,0-0.7,0.17-0.83,0.53c-0.06,0.17-0.12,0.34-0.18,0.5
		c-0.1,0.15-0.27,0.23-0.5,0.23c-0.39,0-0.59-0.18-0.59-0.53c0-0.32,0.19-0.61,0.58-0.86c0.43-0.31,0.99-0.46,1.67-0.46
		c1.05,0,1.75,0.34,2.11,1.02c0.21,0.42,0.32,1.06,0.32,1.91v2.11c0,0.68,0.23,1.02,0.69,1.02c0.07,0,0.18-0.04,0.33-0.11l0.14,0.25
		c-0.3,0.42-0.68,0.64-1.15,0.64C110.03,47.63,109.64,47.33,109.46,46.72L109.46,46.72z M109.28,44.02
		c-1.68,0.09-2.51,0.68-2.51,1.76c0,0.33,0.11,0.59,0.34,0.8c0.21,0.18,0.49,0.28,0.82,0.28c0.56,0,0.94-0.24,1.15-0.73
		c0.13-0.33,0.2-0.84,0.2-1.55L109.28,44.02L109.28,44.02z M112.86,38.05c0.15-0.2,0.37-0.3,0.65-0.3c0.24,0,0.44,0.08,0.6,0.26
		c0.18,0.16,0.28,0.38,0.28,0.62c0,0.27-0.1,0.49-0.3,0.66c-0.19,0.16-0.38,0.23-0.58,0.23c-0.23,0-0.46-0.1-0.62-0.27
		c-0.17-0.16-0.27-0.39-0.27-0.62C112.62,38.42,112.7,38.22,112.86,38.05L112.86,38.05z M115.53,40.82v5c0,0.79,0.27,1.19,0.8,1.22
		v0.59h-2.9v-0.58c0.51-0.06,0.76-0.47,0.76-1.23v-3.18c0-0.41-0.04-0.68-0.11-0.83c-0.08-0.21-0.3-0.34-0.65-0.41v-0.58
		L115.53,40.82L115.53,40.82z M115.16,38.05c0.15-0.2,0.37-0.3,0.64-0.3c0.25,0,0.46,0.08,0.61,0.26c0.17,0.16,0.27,0.39,0.27,0.62
		c0.01,0.25-0.1,0.5-0.3,0.66c-0.19,0.16-0.38,0.23-0.58,0.23c-0.24,0-0.46-0.1-0.62-0.27c-0.17-0.16-0.27-0.39-0.27-0.62
		C114.91,38.42,114.99,38.22,115.16,38.05L115.16,38.05z M117.99,47.06c0.51-0.06,0.77-0.47,0.77-1.23v-3.18
		c0-0.4-0.03-0.68-0.1-0.83c-0.1-0.2-0.32-0.34-0.67-0.41v-0.58h2.89v0.58c-0.34,0.07-0.55,0.2-0.65,0.4
		c-0.09,0.15-0.14,0.44-0.14,0.85v1.27h3.06v-1.27c0-0.4-0.04-0.67-0.14-0.82c-0.09-0.22-0.3-0.37-0.64-0.42v-0.58h2.9v0.58
		c-0.35,0.07-0.56,0.2-0.65,0.41c-0.09,0.15-0.14,0.43-0.14,0.83v3.18c0,0.75,0.26,1.16,0.79,1.23v0.58h-2.9v-0.59
		c0.52-0.03,0.78-0.44,0.78-1.22v-1.28h-3.05v1.28c0,0.79,0.26,1.19,0.79,1.22v0.58h-2.89L117.99,47.06L117.99,47.06z M133.01,46.26
		c-0.82,0.92-1.77,1.38-2.84,1.38c-0.89,0-1.64-0.28-2.25-0.85c-0.68-0.61-1.02-1.44-1.02-2.47c0-1.03,0.32-1.88,0.96-2.55
		c0.62-0.69,1.42-1.04,2.4-1.04c0.71,0,1.26,0.14,1.66,0.42c0.37,0.25,0.56,0.54,0.56,0.88c0,0.42-0.23,0.63-0.68,0.63
		c-0.47,0-0.71-0.23-0.73-0.7v-0.03c-0.04-0.4-0.29-0.6-0.76-0.6c-0.53,0-0.95,0.22-1.26,0.66c-0.4,0.51-0.61,1.28-0.61,2.32
		c0,0.95,0.28,1.63,0.84,2.04c0.36,0.28,0.79,0.42,1.27,0.42c0.87,0,1.57-0.29,2.11-0.86L133.01,46.26L133.01,46.26z M137.06,40.82
		v0.58c-0.35,0.06-0.57,0.2-0.67,0.42c-0.07,0.15-0.11,0.42-0.11,0.82v0.45c0.58-0.3,1.23-0.46,1.88-0.46
		c0.81,0,1.44,0.25,1.91,0.74c0.42,0.46,0.63,1.06,0.63,1.8c0,0.63-0.18,1.16-0.54,1.6c-0.46,0.57-1.16,0.86-2.1,0.86h-3.92v-0.58
		c0.52-0.07,0.78-0.48,0.78-1.23v-3.18c0-0.4-0.04-0.68-0.12-0.83c-0.1-0.21-0.32-0.34-0.66-0.41v-0.58L137.06,40.82L137.06,40.82z
		 M137.27,47.02c1.26,0,1.89-0.64,1.89-1.91c0-1.07-0.5-1.61-1.5-1.61c-0.4,0-0.86,0.12-1.37,0.37v3.15
		C136.29,47.02,137.27,47.02,137.27,47.02z M144.68,43.6c0.53,0,0.93-0.14,1.19-0.41c0.09-0.11,0.27-0.44,0.54-1.01
		c0.51-1.03,1.16-1.54,1.97-1.54c0.17,0,0.3,0.01,0.4,0.02v1.93h-0.56c-0.17-0.36-0.36-0.53-0.57-0.53c-0.2,0-0.42,0.21-0.67,0.64
		c-0.34,0.53-0.63,0.87-0.88,1.03v-0.01c0.59,0.1,1.12,0.41,1.49,0.89c0.27,0.3,0.58,0.86,0.93,1.68c0.16,0.34,0.26,0.53,0.29,0.59
		c0.12,0.11,0.38,0.23,0.77,0.35v0.41c-0.23,0.07-0.46,0.11-0.69,0.11c-0.69,0-1.21-0.19-1.57-0.56c-0.24-0.23-0.51-0.75-0.81-1.54
		c-0.21-0.5-0.39-0.83-0.54-1c-0.25-0.29-0.58-0.43-0.99-0.43h-0.43v1.59c0,0.77,0.26,1.17,0.77,1.22v0.59h-2.87v-0.59
		c0.51-0.05,0.77-0.46,0.77-1.22v-3.17c0-0.41-0.03-0.69-0.1-0.85c-0.1-0.21-0.32-0.35-0.66-0.41v-0.56h2.87v0.56
		c-0.34,0.06-0.56,0.2-0.66,0.41c-0.07,0.16-0.1,0.44-0.1,0.85v0.97L144.68,43.6L144.68,43.6z M154.18,40.82v0.58
		c-0.35,0.07-0.57,0.2-0.67,0.41c-0.06,0.15-0.1,0.43-0.1,0.83l0.01,2.47l2.93-2.79c-0.04-0.5-0.29-0.81-0.76-0.92v-0.58h2.86v0.58
		c-0.32,0.07-0.53,0.2-0.63,0.4c-0.09,0.16-0.13,0.44-0.13,0.85v3.18c0,0.76,0.25,1.17,0.76,1.23v0.58h-2.9v-0.58
		c0.53-0.06,0.8-0.47,0.8-1.23v-2.54l-2.94,2.74c0.01,0.64,0.26,0.98,0.76,1.03v0.58h-2.89v-0.58c0.52-0.05,0.78-0.46,0.78-1.22
		v-3.18c0-0.79-0.26-1.2-0.78-1.24v-0.59L154.18,40.82L154.18,40.82z M163.31,40.82v0.58c-0.35,0.07-0.57,0.2-0.67,0.41
		c-0.06,0.15-0.1,0.43-0.1,0.83l0.01,2.47l2.93-2.79c-0.04-0.5-0.29-0.81-0.76-0.92v-0.58h2.86v0.58c-0.32,0.07-0.53,0.2-0.63,0.4
		c-0.09,0.16-0.13,0.44-0.13,0.85v3.18c0,0.76,0.25,1.17,0.76,1.23v0.58h-2.9v-0.58c0.53-0.06,0.8-0.47,0.8-1.23v-2.54l-2.94,2.74
		c0.01,0.64,0.26,0.98,0.76,1.03v0.58h-2.89v-0.58c0.52-0.05,0.78-0.46,0.78-1.22v-3.18c0-0.79-0.26-1.2-0.78-1.24v-0.59
		L163.31,40.82L163.31,40.82z M162.18,39.72c-0.4-0.33-0.61-0.7-0.62-1.13c-0.01-0.35,0.12-0.64,0.39-0.88
		c0.24-0.25,0.55-0.37,0.92-0.37c0.5,0,0.74,0.21,0.74,0.64c0,0.38-0.19,0.56-0.58,0.56c-0.07,0-0.22-0.05-0.43-0.14
		c-0.08-0.05-0.17-0.07-0.27-0.07c-0.14,0-0.21,0.09-0.21,0.26c0,0.22,0.17,0.4,0.51,0.54c0.38,0.18,0.84,0.26,1.4,0.26
		c0.58,0,1.05-0.09,1.42-0.26c0.35-0.15,0.52-0.33,0.52-0.54c0-0.18-0.08-0.26-0.25-0.26c-0.09,0-0.18,0.03-0.26,0.07
		c-0.21,0.09-0.35,0.14-0.45,0.14c-0.36,0-0.54-0.19-0.54-0.56c0-0.43,0.25-0.64,0.74-0.64c0.36,0,0.66,0.13,0.91,0.38
		c0.26,0.22,0.4,0.54,0.39,0.87c-0.01,0.42-0.22,0.8-0.63,1.13c-0.47,0.38-1.1,0.56-1.87,0.56
		C163.27,40.28,162.65,40.09,162.18,39.72L162.18,39.72z M81.76,53.27v0.6c-0.6,0.07-0.91,0.46-0.91,1.18v2.28
		c0.03,0,0.11,0.01,0.25,0.01c0.77,0,1.39-0.22,1.86-0.65c0.27-0.26,0.53-0.67,0.78-1.21c0.32-0.72,0.61-1.24,0.89-1.55
		c0.46-0.54,1.01-0.81,1.65-0.81c0.36,0,0.7,0.07,1.01,0.2v2.45h-0.67c-0.07-0.59-0.31-0.89-0.72-0.89c-0.29,0-0.72,0.38-1.27,1.14
		c-0.65,0.85-1.3,1.35-1.95,1.53v0.01c1.49,0.18,2.58,1.12,3.27,2.81c0.42,1.06,0.7,1.7,0.83,1.93c0.37,0.65,1.02,0.98,1.94,0.98
		v0.73c-0.3,0.04-0.68,0.08-1.13,0.12c-0.96-0.03-1.71-0.37-2.24-1.03c-0.29-0.38-0.76-1.35-1.41-2.92
		c-0.37-0.95-0.85-1.58-1.43-1.89c-0.35-0.19-0.84-0.29-1.48-0.29h-0.18v4.23c0,0.74,0.3,1.13,0.91,1.18v0.63h-3.32v-0.63
		c0.6-0.06,0.91-0.45,0.91-1.18v-7.21c0-0.72-0.3-1.11-0.91-1.18v-0.6L81.76,53.27L81.76,53.27z M94.5,63.13
		c-0.6,0.61-1.29,0.92-2.07,0.92c-0.65,0-1.16-0.18-1.53-0.53c-0.36-0.32-0.54-0.75-0.54-1.29c0-1.45,1.32-2.26,3.95-2.42
		c0-0.66-0.07-1.14-0.23-1.43c-0.17-0.38-0.51-0.57-1.01-0.57c-0.42,0-0.7,0.17-0.83,0.53c-0.06,0.17-0.12,0.34-0.18,0.51
		c-0.1,0.15-0.27,0.23-0.5,0.23c-0.39,0-0.59-0.18-0.59-0.53c0-0.32,0.19-0.61,0.58-0.86c0.43-0.31,0.99-0.46,1.68-0.46
		c1.05,0,1.75,0.34,2.11,1.03c0.21,0.42,0.32,1.06,0.32,1.91v2.11c0,0.68,0.23,1.02,0.69,1.02c0.07,0,0.18-0.04,0.33-0.11l0.15,0.25
		c-0.3,0.42-0.68,0.64-1.15,0.64C95.07,64.05,94.68,63.74,94.5,63.13z M94.32,60.43c-1.68,0.09-2.51,0.68-2.51,1.76
		c0,0.33,0.11,0.59,0.34,0.8c0.21,0.19,0.49,0.28,0.82,0.28c0.56,0,0.94-0.24,1.15-0.72c0.13-0.33,0.2-0.85,0.2-1.55L94.32,60.43
		L94.32,60.43z M103.7,57.24v2.22h-0.57c-0.09-1.07-0.67-1.6-1.75-1.6h-0.25v4.39c0,0.77,0.27,1.17,0.8,1.22v0.59h-2.92v-0.58
		c0.35-0.05,0.56-0.17,0.64-0.35c0.1-0.17,0.15-0.46,0.15-0.88v-4.39h-0.23c-1.04,0-1.63,0.53-1.77,1.6h-0.57v-2.22L103.7,57.24
		L103.7,57.24z M111.64,59.69c0.07,0.3,0.11,0.64,0.11,1.02c0,0.24-0.04,0.53-0.11,0.85c-0.25,1.02-0.81,1.74-1.66,2.17
		c-0.48,0.25-1.02,0.38-1.56,0.38c-0.54,0.01-1.07-0.13-1.55-0.38c-0.87-0.43-1.43-1.15-1.69-2.17c-0.07-0.28-0.1-0.56-0.11-0.85
		c0-0.38,0.04-0.72,0.11-1.02c0.44-1.72,1.52-2.58,3.24-2.58C110.14,57.11,111.21,57.97,111.64,59.69L111.64,59.69z M107.13,58.34
		c-0.37,0.44-0.55,1.21-0.55,2.32c0,0.76,0.08,1.34,0.24,1.72c0.26,0.74,0.78,1.11,1.58,1.11c1.21,0,1.81-0.94,1.81-2.83
		c0-1.11-0.19-1.89-0.56-2.32c-0.27-0.36-0.69-0.54-1.26-0.54C107.83,57.81,107.41,57.99,107.13,58.34L107.13,58.34z M117.27,57.24
		l1.48,5.09c0.23,0.65,0.6,1.03,1.08,1.13v0.58h-2.03l-1.48-5.24l-0.03,0.01c-0.52,1.75-0.81,2.7-0.86,2.83
		c-0.58,1.68-1.27,2.52-2.07,2.52c-0.23,0-0.4-0.03-0.5-0.08c-0.29-0.13-0.43-0.38-0.43-0.75c0-0.38,0.24-0.58,0.71-0.58
		c0.09,0,0.21,0.03,0.34,0.08c0.08,0.05,0.17,0.08,0.27,0.09c0.11,0,0.18-0.02,0.23-0.05c0.31-0.11,0.62-0.68,0.94-1.71
		c0.49-1.54,0.73-2.48,0.73-2.83c-0.1-0.34-0.36-0.52-0.78-0.53v-0.57L117.27,57.24L117.27,57.24z M124.37,57.24v0.58
		c-0.35,0.07-0.57,0.2-0.67,0.41c-0.06,0.15-0.1,0.43-0.1,0.83l0.01,2.47l2.93-2.79c-0.04-0.5-0.29-0.81-0.76-0.92v-0.58h2.86v0.58
		c-0.32,0.07-0.53,0.2-0.63,0.4c-0.09,0.16-0.13,0.44-0.13,0.85v3.18c0,0.76,0.25,1.17,0.76,1.23v0.58h-2.9v-0.58
		c0.53-0.06,0.8-0.47,0.8-1.23V59.7l-2.94,2.74c0.01,0.63,0.26,0.98,0.76,1.03v0.58h-2.89v-0.59c0.52-0.05,0.78-0.46,0.78-1.22
		v-3.18c0-0.79-0.26-1.2-0.78-1.24v-0.58L124.37,57.24L124.37,57.24z M137.84,57.82c-0.52,0.04-0.78,0.44-0.78,1.21v3.85
		c0,0.22,0.13,0.42,0.4,0.59c0.82,0.57,1.24,1.1,1.24,1.61c0,0.53-0.19,0.98-0.57,1.35c-0.42,0.41-0.97,0.61-1.65,0.61
		c-0.48,0-1.08-0.13-1.82-0.38c-1.19-0.42-1.95-0.63-2.27-0.63c-0.28,0-0.42,0.12-0.42,0.36c0,0.05,0.03,0.08,0.09,0.08
		c0.1,0,0.16-0.01,0.17-0.04c0.04-0.05,0.1-0.08,0.16-0.07c0.29,0,0.43,0.15,0.43,0.45c0,0.37-0.18,0.55-0.55,0.55
		c-0.5,0-0.75-0.26-0.75-0.78c0-0.36,0.15-0.68,0.46-0.96c0.4-0.34,0.96-0.51,1.67-0.51c0.38,0,0.9,0.12,1.57,0.35
		c1.15,0.37,1.81,0.55,1.97,0.55c0.63,0,0.95-0.31,0.95-0.94c0-0.32-0.14-0.57-0.42-0.76c-0.29-0.17-0.63-0.26-0.97-0.25h-6.2v-0.59
		c0.52-0.04,0.78-0.45,0.78-1.22v-3.22c0-0.8-0.26-1.2-0.78-1.21v-0.58h2.91v0.58c-0.33,0.01-0.55,0.13-0.67,0.36
		c-0.07,0.15-0.11,0.44-0.11,0.85v4.39h3.04v-4.4c0-0.42-0.04-0.7-0.11-0.85c-0.12-0.23-0.34-0.35-0.67-0.36v-0.58h2.92
		L137.84,57.82L137.84,57.82z M143.08,57.24v0.58c-0.35,0.06-0.57,0.2-0.66,0.42c-0.07,0.15-0.11,0.42-0.11,0.82v0.45
		c0.58-0.3,1.23-0.46,1.88-0.46c0.81,0,1.44,0.25,1.91,0.74c0.42,0.46,0.64,1.06,0.64,1.8c0,0.63-0.18,1.16-0.54,1.6
		c-0.46,0.57-1.16,0.86-2.1,0.86h-3.92v-0.58c0.52-0.07,0.78-0.48,0.78-1.23v-3.18c0-0.4-0.04-0.68-0.12-0.83
		c-0.1-0.21-0.32-0.34-0.67-0.41v-0.58L143.08,57.24L143.08,57.24z M143.29,63.43c1.26,0,1.89-0.64,1.89-1.91
		c0-1.07-0.5-1.61-1.5-1.61c-0.4,0-0.86,0.12-1.38,0.37v3.15L143.29,63.43L143.29,63.43z M150.7,60.01c0.53,0,0.93-0.14,1.19-0.41
		c0.09-0.11,0.27-0.44,0.54-1c0.51-1.03,1.16-1.54,1.97-1.54c0.17,0,0.3,0.01,0.4,0.02v1.93h-0.56c-0.17-0.36-0.36-0.54-0.57-0.54
		c-0.2,0-0.42,0.21-0.67,0.64c-0.34,0.53-0.63,0.87-0.88,1.03v-0.01c0.59,0.1,1.12,0.41,1.49,0.89c0.27,0.3,0.58,0.86,0.93,1.68
		c0.16,0.34,0.26,0.53,0.29,0.59c0.12,0.11,0.38,0.23,0.77,0.35v0.41c-0.23,0.07-0.46,0.11-0.69,0.11c-0.69,0-1.21-0.19-1.57-0.56
		c-0.24-0.24-0.51-0.75-0.81-1.54c-0.21-0.5-0.39-0.83-0.54-1c-0.25-0.29-0.58-0.43-0.99-0.43h-0.43v1.59
		c0,0.77,0.26,1.17,0.77,1.22v0.59h-2.87v-0.59c0.51-0.05,0.77-0.46,0.77-1.22v-3.17c0-0.41-0.03-0.69-0.1-0.85
		c-0.1-0.21-0.32-0.35-0.66-0.41v-0.56h2.87v0.56c-0.34,0.06-0.56,0.2-0.66,0.41c-0.07,0.16-0.1,0.44-0.1,0.85v0.97L150.7,60.01
		L150.7,60.01z M160.2,57.24v0.58c-0.35,0.07-0.57,0.2-0.67,0.41c-0.06,0.15-0.1,0.43-0.1,0.83l0.01,2.47l2.93-2.79
		c-0.04-0.5-0.29-0.81-0.76-0.92v-0.58h2.86v0.58c-0.32,0.07-0.53,0.2-0.63,0.4c-0.09,0.16-0.13,0.44-0.13,0.85v3.18
		c0,0.76,0.25,1.17,0.76,1.23v0.58h-2.9v-0.58c0.53-0.06,0.8-0.47,0.8-1.23V59.7l-2.94,2.74c0.01,0.63,0.26,0.98,0.76,1.03v0.58
		h-2.89v-0.59c0.52-0.05,0.78-0.46,0.78-1.22v-3.18c0-0.79-0.26-1.2-0.78-1.24v-0.58L160.2,57.24L160.2,57.24z M169.33,57.24v0.58
		c-0.35,0.07-0.57,0.2-0.66,0.41c-0.06,0.15-0.1,0.43-0.1,0.83l0.01,2.47l2.93-2.79c-0.04-0.5-0.29-0.81-0.76-0.92v-0.58h2.86v0.58
		c-0.32,0.07-0.53,0.2-0.63,0.4c-0.09,0.16-0.13,0.44-0.13,0.85v3.18c0,0.76,0.25,1.17,0.76,1.23v0.58h-2.9v-0.58
		c0.53-0.06,0.8-0.47,0.8-1.23V59.7l-2.94,2.74c0.01,0.63,0.26,0.98,0.76,1.03v0.58h-2.89v-0.59c0.52-0.05,0.78-0.46,0.78-1.22
		v-3.18c0-0.79-0.26-1.2-0.78-1.24v-0.58L169.33,57.24L169.33,57.24z M168.2,56.13c-0.4-0.33-0.61-0.7-0.62-1.13
		c-0.01-0.35,0.12-0.65,0.39-0.88c0.24-0.25,0.55-0.37,0.92-0.37c0.5,0,0.74,0.21,0.74,0.64c0,0.38-0.19,0.56-0.58,0.56
		c-0.07,0-0.22-0.05-0.43-0.14c-0.08-0.05-0.17-0.07-0.27-0.07c-0.14,0-0.21,0.09-0.21,0.26c0,0.22,0.17,0.4,0.51,0.54
		c0.38,0.18,0.84,0.26,1.4,0.26c0.58,0,1.05-0.09,1.42-0.26c0.35-0.15,0.52-0.33,0.52-0.54c0-0.18-0.08-0.26-0.25-0.26
		c-0.09,0-0.18,0.03-0.26,0.07c-0.21,0.09-0.35,0.14-0.45,0.14c-0.36,0-0.54-0.19-0.54-0.56c0-0.42,0.25-0.64,0.74-0.64
		c0.36,0,0.66,0.13,0.91,0.38c0.26,0.22,0.4,0.54,0.39,0.87c-0.01,0.42-0.22,0.8-0.63,1.13c-0.47,0.38-1.1,0.56-1.87,0.56
		C169.29,56.7,168.67,56.51,168.2,56.13L168.2,56.13z M88.19,70.3c-0.66,0.14-1.14,0.57-1.43,1.31l-2.19,5.07
		c-0.64,1.46-1.09,2.38-1.35,2.75c-0.56,0.79-1.29,1.18-2.19,1.18c-0.48,0-0.9-0.1-1.26-0.29c-0.49-0.24-0.73-0.6-0.73-1.08
		c0-0.56,0.27-0.85,0.8-0.85c0.22,0,0.43,0.08,0.62,0.24c0.18,0.18,0.26,0.38,0.26,0.59l-0.01,0.35c0,0.29,0.19,0.43,0.58,0.43
		c0.78,0,1.44-0.71,1.97-2.14l-3.6-6.38c-0.41-0.75-0.81-1.13-1.19-1.15v-0.63h3.27v0.63c-0.41,0.01-0.62,0.15-0.62,0.43
		c0,0.17,0.12,0.46,0.36,0.86l2.54,4.56h-0.03l2-4.61c0.12-0.23,0.18-0.44,0.18-0.63c0.01-0.18-0.07-0.36-0.21-0.47
		c-0.13-0.13-0.32-0.17-0.58-0.13v-0.65h2.85L88.19,70.3L88.19,70.3z M87.9,79.88c0.51-0.06,0.77-0.47,0.77-1.23v-3.18
		c0-0.4-0.03-0.68-0.1-0.83c-0.1-0.21-0.32-0.34-0.67-0.41v-0.58h2.89v0.58c-0.34,0.07-0.55,0.2-0.65,0.4
		c-0.09,0.15-0.14,0.43-0.14,0.85v1.27h3.06v-1.27c0-0.39-0.05-0.67-0.14-0.82c-0.09-0.22-0.3-0.37-0.64-0.42v-0.58h2.9v0.58
		c-0.35,0.07-0.56,0.21-0.65,0.41c-0.09,0.15-0.14,0.43-0.14,0.83v3.18c0,0.75,0.26,1.16,0.79,1.23v0.58h-2.9v-0.59
		c0.52-0.03,0.78-0.44,0.78-1.22v-1.28h-3.05v1.28c0,0.79,0.26,1.19,0.79,1.22v0.59H87.9L87.9,79.88L87.9,79.88z M99.22,73.65v5
		c0,0.79,0.26,1.19,0.79,1.22v0.58h-2.89v-0.58c0.51-0.06,0.77-0.47,0.77-1.23v-3.18c0-0.4-0.03-0.68-0.1-0.83
		c-0.1-0.21-0.32-0.34-0.67-0.41v-0.58L99.22,73.65L99.22,73.65z M97.73,70.86c0.15-0.2,0.37-0.3,0.64-0.3
		c0.23-0.01,0.45,0.08,0.61,0.25c0.17,0.16,0.27,0.39,0.27,0.62c0,0.28-0.1,0.5-0.3,0.66c-0.19,0.15-0.38,0.23-0.58,0.23
		c-0.22,0-0.43-0.09-0.62-0.27c-0.17-0.16-0.27-0.39-0.27-0.62C97.48,71.22,97.56,71.03,97.73,70.86z M105.24,73.65
		c0.64,0,1.2,0.07,1.69,0.21c0.66,0.25,0.99,0.72,0.99,1.44c0,0.85-0.44,1.36-1.33,1.53l-0.07,0.01c1.18,0.1,1.76,0.68,1.76,1.74
		c0,1.26-0.91,1.88-2.72,1.88h-3.84v-0.59c0.52-0.03,0.78-0.44,0.78-1.22v-3.18c0-0.38-0.04-0.66-0.12-0.82
		c-0.1-0.22-0.32-0.37-0.67-0.42v-0.58L105.24,73.65L105.24,73.65z M103.87,76.59h1.09c1,0,1.5-0.4,1.5-1.19
		c0-0.76-0.5-1.14-1.5-1.14h-1.09C103.87,74.26,103.87,76.59,103.87,76.59z M103.87,79.79H105c1.16,0,1.74-0.44,1.74-1.31
		c0-0.85-0.62-1.27-1.87-1.27h-1L103.87,79.79L103.87,79.79z M115.69,79.02c-0.82,0.98-1.74,1.47-2.75,1.47
		c-0.76,0-1.44-0.21-2.02-0.62c-0.76-0.56-1.14-1.43-1.14-2.61c0-1.09,0.3-1.98,0.9-2.67c0.56-0.68,1.3-1.03,2.21-1.03
		c0.84,0,1.5,0.31,1.98,0.92c0.42,0.54,0.63,1.17,0.63,1.89v0.18h-4.17c-0.01,0.22-0.02,0.45-0.01,0.67c0,1.66,0.62,2.48,1.86,2.48
		c0.74,0,1.46-0.35,2.15-1.06L115.69,79.02L115.69,79.02z M114.05,75.83c0-1.02-0.41-1.54-1.24-1.54c-0.92,0-1.4,0.55-1.45,1.65
		h2.68V75.83L114.05,75.83z M116.58,82.81c0.51-0.05,0.77-0.44,0.77-1.18V76.8c0-0.75,0.07-1.28,0.21-1.59
		c0.5-1.09,1.49-1.64,2.97-1.64c0.87,0,1.63,0.26,2.26,0.79c0.75,0.63,1.12,1.5,1.12,2.62c0,1.1-0.38,2-1.15,2.69
		c-0.58,0.5-1.28,0.75-2.11,0.75c-0.85,0-1.5-0.23-1.95-0.7h-0.01v1.9c0,0.8,0.3,1.19,0.89,1.19v0.57h-2.99L116.58,82.81
		L116.58,82.81z M118.68,77.91c0,1.2,0.61,1.8,1.83,1.8c1.24,0,1.86-0.91,1.86-2.73c0-1.81-0.61-2.72-1.84-2.72
		c-0.61,0-1.1,0.23-1.45,0.68c-0.26,0.34-0.39,0.69-0.39,1.07C118.68,76.01,118.68,77.91,118.68,77.91z M131.54,79.08
		c-0.82,0.92-1.77,1.38-2.84,1.38c-0.89,0-1.64-0.28-2.25-0.85c-0.68-0.62-1.02-1.44-1.02-2.48c0-1.03,0.32-1.87,0.96-2.55
		c0.62-0.69,1.42-1.04,2.4-1.04c0.71,0,1.26,0.14,1.66,0.42c0.37,0.25,0.56,0.54,0.56,0.88c0,0.42-0.23,0.63-0.68,0.63
		c-0.47,0-0.71-0.23-0.73-0.7v-0.03c-0.04-0.4-0.29-0.6-0.76-0.6c-0.53,0-0.95,0.22-1.27,0.66c-0.4,0.51-0.61,1.28-0.61,2.32
		c0,0.95,0.28,1.63,0.84,2.04c0.36,0.28,0.79,0.43,1.27,0.43c0.87,0,1.57-0.29,2.11-0.87L131.54,79.08L131.54,79.08z M135.95,73.65
		v0.58c-0.35,0.07-0.57,0.21-0.66,0.41c-0.06,0.15-0.1,0.43-0.1,0.83l0.01,2.47l2.93-2.79c-0.04-0.5-0.29-0.81-0.76-0.92v-0.58h2.86
		v0.58c-0.32,0.07-0.53,0.2-0.63,0.4c-0.09,0.16-0.13,0.44-0.13,0.85v3.18c0,0.76,0.25,1.17,0.76,1.23v0.58h-2.9v-0.58
		c0.53-0.06,0.8-0.47,0.8-1.23v-2.54l-2.94,2.74c0.01,0.64,0.26,0.98,0.76,1.03v0.58h-2.89v-0.59c0.52-0.05,0.78-0.46,0.78-1.22
		v-3.18c0-0.79-0.26-1.2-0.78-1.24v-0.59L135.95,73.65L135.95,73.65z M148.43,73.65v2.22h-0.57c-0.09-1.07-0.67-1.6-1.75-1.6h-0.25
		v4.39c0,0.77,0.27,1.17,0.8,1.22v0.59h-2.92v-0.58c0.35-0.05,0.56-0.17,0.64-0.35c0.1-0.17,0.15-0.47,0.15-0.88v-4.39h-0.23
		c-1.04,0-1.63,0.53-1.77,1.6h-0.57v-2.22L148.43,73.65L148.43,73.65z M155.57,79.02c-0.82,0.98-1.74,1.47-2.75,1.47
		c-0.76,0-1.44-0.21-2.02-0.62c-0.76-0.56-1.14-1.43-1.14-2.61c0-1.09,0.3-1.98,0.9-2.67c0.56-0.68,1.3-1.03,2.21-1.03
		c0.84,0,1.5,0.31,1.98,0.92c0.42,0.54,0.63,1.17,0.63,1.89v0.18h-4.17c-0.01,0.12-0.01,0.35-0.01,0.67c0,1.66,0.62,2.48,1.86,2.48
		c0.74,0,1.46-0.35,2.15-1.06L155.57,79.02L155.57,79.02z M153.93,75.83c0-1.02-0.41-1.54-1.24-1.54c-0.92,0-1.4,0.55-1.45,1.65
		h2.68L153.93,75.83L153.93,75.83z M163.2,73.65v2.22h-0.57c-0.09-1.07-0.67-1.6-1.75-1.6h-0.25v4.39c0,0.77,0.27,1.17,0.8,1.22
		v0.59h-2.93v-0.58c0.35-0.05,0.56-0.17,0.64-0.35c0.1-0.17,0.15-0.47,0.15-0.88v-4.39h-0.23c-1.04,0-1.63,0.53-1.77,1.6h-0.57
		v-2.22L163.2,73.65L163.2,73.65z"/>
</g>
</svg>
